<svg id="Layer_2" data-name="Layer 2" xmlns="http://www.w3.org/2000/svg" viewBox="0 0 456.05 264.6"><defs><style>.cls-1,.cls-2,.cls-3,.cls-4{fill:none;}.cls-1,.cls-2,.cls-3,.cls-4,.cls-6{stroke:#2eb6e7;stroke-miterlimit:10;}.cls-1{stroke-width:5px;}.cls-2{stroke-width:3.5px;}.cls-3{stroke-width:3px;}.cls-4{stroke-width:4px;}.cls-5{fill:#fff;}.cls-6{fill:#2eb6e7;stroke-width:0.5px;}</style></defs><title>Artboard 1</title><circle class="cls-1" cx="228.02" cy="90.53" r="46.06"/><circle class="cls-2" cx="236.19" cy="69.53" r="6.17"/><circle class="cls-2" cx="219.72" cy="69.53" r="6.17"/><circle class="cls-3" cx="209.86" cy="80.69" r="3.83"/><circle class="cls-3" cx="246.19" cy="80.69" r="3.83"/><path class="cls-4" d="M229,83a17.46,17.46,0,0,1,9.22,2.92,21.65,21.65,0,0,1,9.58,17.75c.09,9.28-11.75,11.54-18.8,11.84h-1.87c-7-.31-18.89-2.57-18.8-11.84C208.4,92.31,218.35,82.74,229,83Z"/><path class="cls-5" d="M65.83,171.59a13.16,13.16,0,0,1-5.12,4.64,19.64,19.64,0,0,1-8,2.12L51,188q-1,5.56-5.44,5.56a7.69,7.69,0,0,1-4.5-1.44,9.8,9.8,0,0,1-3.3-4.4,18.85,18.85,0,0,1-1.24-7.28,32.66,32.66,0,0,1,2.62-13.78,19.34,19.34,0,0,1,7-8.48,17.74,17.74,0,0,1,9.74-2.82,14.05,14.05,0,0,1,6.38,1.32,9.36,9.36,0,0,1,4,3.58,9.81,9.81,0,0,1,1.34,5.1A11.62,11.62,0,0,1,65.83,171.59Zm-4.2-5.88a5.68,5.68,0,0,0-1.74-4.3q-1.74-1.66-5.38-1.66a10.74,10.74,0,0,0-7.18,2.6,16.57,16.57,0,0,0-4.72,7.22,31.06,31.06,0,0,0-1.66,10.54,17.51,17.51,0,0,0,.5,4.4,8.79,8.79,0,0,0,1.28,3q.78,1.06,1.5,1.06,1,0,1.52-2.76l1.32-7.56-1.36-.2a2.25,2.25,0,0,1-1.56-.74,2.44,2.44,0,0,1-.36-1.38,1.93,1.93,0,0,1,.5-1.4,1.82,1.82,0,0,1,1.38-.52,3.35,3.35,0,0,1,.6,0q1,.16,1.48.2.52-3.12,1.48-8.36a2.79,2.79,0,0,1,1.1-1.94,3.52,3.52,0,0,1,2-.58,2.9,2.9,0,0,1,1.9.5,2,2,0,0,1,.58,1.58,5.49,5.49,0,0,1-.08,1l-1.32,7.76Q61.63,173.19,61.63,165.71Z"/><path class="cls-5" d="M67.53,187.73a7.14,7.14,0,0,1-1.14-4.14,34.93,34.93,0,0,1,.4-5.5,34.48,34.48,0,0,1,1.32-5.3,3.34,3.34,0,0,1,1.12-1.72,4,4,0,0,1,2.28-.52,2,2,0,0,1,1.22.28,1,1,0,0,1,.34.84,16.65,16.65,0,0,1-.44,2.16q-.4,1.48-.64,2.68a37.78,37.78,0,0,0-.8,5.6,2.48,2.48,0,0,0,.2,1.18.69.69,0,0,0,.64.34q.6,0,1.5-1.2a17.64,17.64,0,0,0,1.92-3.64,48.56,48.56,0,0,0,2-6,2.6,2.6,0,0,1,3-2.24,2.65,2.65,0,0,1,1.28.22.88.88,0,0,1,.36.82,38.86,38.86,0,0,1-1,5.48,44.31,44.31,0,0,0-1.12,6.32,1.91,1.91,0,0,0,.32,1.18,1,1,0,0,0,.84.42,3.13,3.13,0,0,0,1.9-1,32.21,32.21,0,0,0,2.94-3.18,1.4,1.4,0,0,1,1.08-.56.93.93,0,0,1,.82.48,2.48,2.48,0,0,1,.3,1.32,3.68,3.68,0,0,1-.76,2.48,17.71,17.71,0,0,1-3.7,3.48,7.76,7.76,0,0,1-4.5,1.36,3.06,3.06,0,0,1-2.82-1.48,8,8,0,0,1-.9-4.16,9.37,9.37,0,0,1-2,4.18,4,4,0,0,1-2.92,1.46A3.44,3.44,0,0,1,67.53,187.73Z"/><path class="cls-5" d="M85.57,187.79a15.3,15.3,0,0,1-.62-5.12,32.58,32.58,0,0,1,1.48-9.88,3,3,0,0,1,1.18-1.7,4.16,4.16,0,0,1,2.3-.54,2.26,2.26,0,0,1,1.12.2.83.83,0,0,1,.32.76,15.21,15.21,0,0,1-.6,2.88q-.4,1.6-.64,2.8a28.59,28.59,0,0,0-.4,3,22.74,22.74,0,0,1,3-5.6,11.59,11.59,0,0,1,3.22-3.08,5.86,5.86,0,0,1,2.9-.92,2.3,2.3,0,0,1,2.6,2.6,20.16,20.16,0,0,1-.36,2.52,14.66,14.66,0,0,0-.32,2q0,1.4,1,1.4t2.88-1.76a1.53,1.53,0,0,1,1.08-.52.93.93,0,0,1,.82.46,2.21,2.21,0,0,1,.3,1.22,3.23,3.23,0,0,1-.8,2.32,10.8,10.8,0,0,1-2.62,2,6.53,6.53,0,0,1-3.18.82A4.41,4.41,0,0,1,97,182.51a3.9,3.9,0,0,1-1.1-2.92,6.09,6.09,0,0,1,.12-1.2q.08-.8.08-1.08,0-.64-.44-.64-.6,0-1.58,1.34a18.76,18.76,0,0,0-1.94,3.54,28.73,28.73,0,0,0-1.56,4.64,6.25,6.25,0,0,1-1,2.54,2.3,2.3,0,0,1-1.82.66A2.18,2.18,0,0,1,85.57,187.79Z"/><path class="cls-5" d="M103.77,187.79a15.3,15.3,0,0,1-.62-5.12,32.58,32.58,0,0,1,1.48-9.88,3,3,0,0,1,1.18-1.7,4.16,4.16,0,0,1,2.3-.54,2.26,2.26,0,0,1,1.12.2.83.83,0,0,1,.32.76,15.21,15.21,0,0,1-.6,2.88q-.4,1.6-.64,2.8a28.59,28.59,0,0,0-.4,3,22.74,22.74,0,0,1,3-5.6,11.59,11.59,0,0,1,3.22-3.08,5.86,5.86,0,0,1,2.9-.92,2.3,2.3,0,0,1,2.6,2.6,20.16,20.16,0,0,1-.36,2.52,14.66,14.66,0,0,0-.32,2q0,1.4,1,1.4t2.88-1.76a1.53,1.53,0,0,1,1.08-.52.93.93,0,0,1,.82.46,2.21,2.21,0,0,1,.3,1.22,3.23,3.23,0,0,1-.8,2.32,10.8,10.8,0,0,1-2.62,2,6.53,6.53,0,0,1-3.18.82,4.41,4.41,0,0,1-3.22-1.08,3.9,3.9,0,0,1-1.1-2.92,6.09,6.09,0,0,1,.12-1.2q.08-.8.08-1.08,0-.64-.44-.64-.6,0-1.58,1.34a18.76,18.76,0,0,0-1.94,3.54,28.73,28.73,0,0,0-1.56,4.64,6.25,6.25,0,0,1-1,2.54,2.3,2.3,0,0,1-1.82.66A2.18,2.18,0,0,1,103.77,187.79Z"/><path class="cls-5" d="M124.16,188.43a3.54,3.54,0,0,1-.9-2.52,4,4,0,0,1,1-2.88,4.43,4.43,0,0,1,5.52-.22,3.35,3.35,0,0,1,.9,2.54,4.1,4.1,0,0,1-1,2.94,3.72,3.72,0,0,1-2.84,1.1A3.47,3.47,0,0,1,124.16,188.43Z"/><path class="cls-5" d="M180,156.71a2.1,2.1,0,0,1,.42,1.36q0,2.76-3,2.56l-1.4-.12q-2.36-.2-4.7-.32t-4.9-.12h-1.8q-.48,5.92-1,10.8l6.88-.12a2.78,2.78,0,0,1,2,.52,1.94,1.94,0,0,1,.5,1.4,2.85,2.85,0,0,1-.8,2.14,3.14,3.14,0,0,1-2.28.78h-6.84l-.24,1.72q-.84,6.6-3.58,9.4a10.06,10.06,0,0,1-7.54,2.8,10.71,10.71,0,0,1-5-1.18,8.5,8.5,0,0,1-3.36-2.86,3,3,0,0,1-.44-1.64,3.05,3.05,0,0,1,.46-1.68,1.34,1.34,0,0,1,1.14-.72,1.63,1.63,0,0,1,.94.32A6.33,6.33,0,0,1,146.7,183a5.78,5.78,0,0,0,4.76,2.52,4.77,4.77,0,0,0,3.82-1.86,11.11,11.11,0,0,0,2-5.86l.24-2.2h-1.92a2.47,2.47,0,0,1-1.58-.52,1.77,1.77,0,0,1-.66-1.48,2.62,2.62,0,0,1,.64-1.9,2.5,2.5,0,0,1,1.88-.66q1.12,0,2.2,0,.48-4.4,1-10.68a16.36,16.36,0,0,0-6.08,1.4,3.21,3.21,0,0,0-1.76,3,4.71,4.71,0,0,0,.8,2.6,1.29,1.29,0,0,1,.24.72,1.53,1.53,0,0,1-.8,1.26,3.15,3.15,0,0,1-1.8.54,2.76,2.76,0,0,1-1.84-.64,3.88,3.88,0,0,1-.92-1.64,8.19,8.19,0,0,1-.44-2.76q0-5,5.1-7.2t14.9-2.24a88.55,88.55,0,0,1,12,.72A2.35,2.35,0,0,1,180,156.71Z"/><path class="cls-5" d="M173,187.59a7.2,7.2,0,0,1-1.48-4.72,13,13,0,0,1,1.48-6.06,12.63,12.63,0,0,1,3.94-4.6,8.89,8.89,0,0,1,5.22-1.74,1.56,1.56,0,0,1,1.18.34,2.88,2.88,0,0,1,.5,1.22,9.42,9.42,0,0,1,1.76-.16q2,0,2,1.4a30,30,0,0,1-.6,4,38.82,38.82,0,0,0-.92,6.4,1.45,1.45,0,0,0,.3,1,1,1,0,0,0,.78.36,3,3,0,0,0,1.84-1,34.25,34.25,0,0,0,2.92-3.18,1.41,1.41,0,0,1,1.08-.56.93.93,0,0,1,.82.48,2.48,2.48,0,0,1,.3,1.32,3.68,3.68,0,0,1-.76,2.48,20.16,20.16,0,0,1-3.48,3.44,5.93,5.93,0,0,1-3.56,1.4,3.73,3.73,0,0,1-2.42-.9,5.47,5.47,0,0,1-1.66-2.46q-2.08,3.36-5.24,3.36A4.87,4.87,0,0,1,173,187.59Zm7.08-3.28a6.75,6.75,0,0,0,1.16-2.76l1.48-7.36a4.85,4.85,0,0,0-3.1,1.26,8.48,8.48,0,0,0-2.26,3.22,10.82,10.82,0,0,0-.84,4.24,2.83,2.83,0,0,0,.5,1.84,1.7,1.7,0,0,0,1.38.6A2.2,2.2,0,0,0,180.06,184.31Z"/><path class="cls-5" d="M192,187.55a8.94,8.94,0,0,1-1.18-4.88,29.87,29.87,0,0,1,.46-4.62,43.26,43.26,0,0,1,1.18-5.26,3.39,3.39,0,0,1,1-1.76,3.07,3.07,0,0,1,1.92-.48q2,0,2,1.36a31.38,31.38,0,0,1-.76,4.64,34.63,34.63,0,0,0-1,6,4.21,4.21,0,0,0,.32,1.84A1.11,1.11,0,0,0,197,185a3,3,0,0,0,1.8-1,35.73,35.73,0,0,0,2.88-3.16,1.41,1.41,0,0,1,1.08-.56.93.93,0,0,1,.82.48,2.48,2.48,0,0,1,.3,1.32,3.68,3.68,0,0,1-.76,2.48q-4,4.84-7.4,4.84A4.16,4.16,0,0,1,192,187.55Zm1.58-20.42a2.83,2.83,0,0,1-.84-2.18,3,3,0,0,1,1.1-2.34,4.07,4.07,0,0,1,2.74-.94,3.78,3.78,0,0,1,2.4.72,2.44,2.44,0,0,1,.92,2,3.25,3.25,0,0,1-1,2.54,4,4,0,0,1-2.76.94A3.59,3.59,0,0,1,193.54,167.13Z"/><path class="cls-5" d="M219.32,180.75a2.48,2.48,0,0,1,.3,1.32,3.68,3.68,0,0,1-.76,2.48A17,17,0,0,1,215.1,188a8.24,8.24,0,0,1-4.68,1.36q-8.16,0-8.16-11.48,0-1.76.12-3.56h-1.56a2.24,2.24,0,0,1-1.62-.44,2,2,0,0,1-.42-1.4q0-2.24,1.8-2.24h2.28a38.9,38.9,0,0,1,2.08-8,18.11,18.11,0,0,1,3.38-5.8,5.76,5.76,0,0,1,4.26-2.16,3,3,0,0,1,2.64,1.48,6.71,6.71,0,0,1,1,3.72,14,14,0,0,1-5.2,10.8h4.48a1.27,1.27,0,0,1,.92.28,1.47,1.47,0,0,1,.28,1q0,2.76-4.52,2.76h-4.88q-.08,2-.08,3.12,0,4.16,1,5.84a3.33,3.33,0,0,0,3.1,1.68,4.77,4.77,0,0,0,3-1,24.1,24.1,0,0,0,3.12-3.12,1.41,1.41,0,0,1,1.08-.56A.93.93,0,0,1,219.32,180.75Zm-9.16-21.14a21.31,21.31,0,0,0-1.4,4.16,55.82,55.82,0,0,0-1.1,5.9,13.67,13.67,0,0,0,3.54-4.58,11.11,11.11,0,0,0,1.18-4.62q0-2.36-.88-2.36Q210.9,158.11,210.16,159.61Z"/><path class="cls-5" d="M234.9,187.65a12.53,12.53,0,0,1-5.4-4.94,14.41,14.41,0,0,1-1.88-7.44,23.55,23.55,0,0,1,2.22-10.44,17.25,17.25,0,0,1,6-7.06,15,15,0,0,1,8.44-2.5q4.32,0,6.56,2.22a7.89,7.89,0,0,1,2.24,5.86,7.76,7.76,0,0,1-.86,3.92,2.94,2.94,0,0,1-4.22,1,1.84,1.84,0,0,1-.64-1.52,9.55,9.55,0,0,1,.16-1.32,10.39,10.39,0,0,0,.24-1.92q0-3.64-3.88-3.64a8.52,8.52,0,0,0-5,1.72,12,12,0,0,0-3.88,5.06,19.5,19.5,0,0,0-1.48,7.94q0,4.8,2.68,7.42t7.92,2.62a21.81,21.81,0,0,0,5.26-.66,40.89,40.89,0,0,0,5.9-2,2.81,2.81,0,0,1,1-.24,1.08,1.08,0,0,1,1,.48,2.2,2.2,0,0,1,.32,1.24,3.8,3.8,0,0,1-2.64,3.6,27.47,27.47,0,0,1-5.9,1.82,31.37,31.37,0,0,1-5.82.58A18.48,18.48,0,0,1,234.9,187.65Z"/><path class="cls-5" d="M275.22,177.43a2.77,2.77,0,0,1,.28,1.32q0,1.92-1.16,2.28a18.2,18.2,0,0,1-5.28,1,10,10,0,0,1-3,5.38,7.38,7.38,0,0,1-5.08,2,7.1,7.1,0,0,1-4.1-1.16,7.36,7.36,0,0,1-2.58-3.08,9.86,9.86,0,0,1-.88-4.16,12.2,12.2,0,0,1,1.16-5.42,9.11,9.11,0,0,1,3.2-3.72,8.06,8.06,0,0,1,4.52-1.34,6.23,6.23,0,0,1,4.9,2.1,9,9,0,0,1,2.18,5.18,24.19,24.19,0,0,0,4.48-.8,2.38,2.38,0,0,1,.56-.08A.87.87,0,0,1,275.22,177.43Zm-11.7,6.68a5.78,5.78,0,0,0,1.26-3,5.51,5.51,0,0,1-1.9-2.2,6.5,6.5,0,0,1-.66-2.88,6.94,6.94,0,0,1,.12-1.28h-.2a3.14,3.14,0,0,0-2.66,1.54,7.59,7.59,0,0,0-1.06,4.34,5.58,5.58,0,0,0,.86,3.36,2.48,2.48,0,0,0,2,1.16A2.9,2.9,0,0,0,263.52,184.11Z"/><path class="cls-5" d="M272.76,187.79a15.3,15.3,0,0,1-.62-5.12,32.56,32.56,0,0,1,1.48-9.88,3,3,0,0,1,1.18-1.7,4.15,4.15,0,0,1,2.3-.54,2.26,2.26,0,0,1,1.12.2.83.83,0,0,1,.32.76,15.23,15.23,0,0,1-.6,2.88q-.4,1.6-.64,2.78a27.6,27.6,0,0,0-.4,2.94,21.68,21.68,0,0,1,2.58-5.28,12.16,12.16,0,0,1,3.08-3.22,5.41,5.41,0,0,1,3-1.06,2.58,2.58,0,0,1,2,.64,2.85,2.85,0,0,1,.58,2,25.39,25.39,0,0,1-.76,4.64q-.32,1.44-.44,2.16a19.81,19.81,0,0,1,4.44-7.16,7,7,0,0,1,4.56-2.24,2.3,2.3,0,0,1,2.6,2.6,32.21,32.21,0,0,1-.88,5.64,27.68,27.68,0,0,0-.76,4.6q0,1.6,1.16,1.6a3.13,3.13,0,0,0,1.9-1,32.22,32.22,0,0,0,2.94-3.18,1.41,1.41,0,0,1,1.08-.56.93.93,0,0,1,.82.48,2.48,2.48,0,0,1,.3,1.32,3.68,3.68,0,0,1-.76,2.48,17.71,17.71,0,0,1-3.7,3.48,7.76,7.76,0,0,1-4.5,1.36,3.89,3.89,0,0,1-3.08-1.18,5,5,0,0,1-1-3.42,24.92,24.92,0,0,1,.56-4,20.79,20.79,0,0,0,.52-3.48q0-.64-.44-.64T291.14,178a19.66,19.66,0,0,0-1.92,3.54,28.83,28.83,0,0,0-1.56,4.64,6.09,6.09,0,0,1-1,2.56,2.4,2.4,0,0,1-1.86.64,2.12,2.12,0,0,1-2-1.26,6.52,6.52,0,0,1-.66-3.06,34.47,34.47,0,0,1,.4-4.4q.32-2.56.32-3.36,0-.64-.44-.64-.6,0-1.52,1.44a20.6,20.6,0,0,0-1.78,3.68,35.3,35.3,0,0,0-1.38,4.4,6.25,6.25,0,0,1-1,2.54,2.3,2.3,0,0,1-1.82.66A2.18,2.18,0,0,1,272.76,187.79Z"/><path class="cls-5" d="M324,180.75a2.48,2.48,0,0,1,.3,1.32,3.68,3.68,0,0,1-.76,2.48,17.7,17.7,0,0,1-3.7,3.48,7.76,7.76,0,0,1-4.5,1.36,4.34,4.34,0,0,1-3.44-1.52,8.89,8.89,0,0,1-4.76,1.52,48.84,48.84,0,0,1-2.36,12.9q-1.84,5.18-5.4,5.18a3.58,3.58,0,0,1-3.2-1.56,7.72,7.72,0,0,1-1-4.32,28.61,28.61,0,0,1,1.8-9.14A62.49,62.49,0,0,1,302.5,181q0-5.84-.08-8.12a2,2,0,0,1,.92-1.84,4,4,0,0,1,2.4-.68,1.8,1.8,0,0,1,1.22.34,1.89,1.89,0,0,1,.42,1.34q0,1,0,1.48a9.13,9.13,0,0,1,2.52-2.3,5.28,5.28,0,0,1,2.64-.7,4.45,4.45,0,0,1,3.66,1.8,7.4,7.4,0,0,1,1.42,4.72,12.71,12.71,0,0,1-.68,4.12,13.46,13.46,0,0,1-1.88,3.64,5.28,5.28,0,0,0,1.4.24,4,4,0,0,0,2.52-1,24.22,24.22,0,0,0,3.08-3.2,1.4,1.4,0,0,1,1.08-.56A.92.92,0,0,1,324,180.75Zm-22.5,18.1a97.57,97.57,0,0,0,.92-11.7,58.86,58.86,0,0,0-2.72,7.64,23.9,23.9,0,0,0-1,6.12,5,5,0,0,0,.3,2c.2.45.43.68.7.68Q300.78,203.55,301.5,198.85ZM310,184a9.19,9.19,0,0,0,1.94-3.12,10.72,10.72,0,0,0,.72-3.9,2.94,2.94,0,0,0-.48-1.82,1.54,1.54,0,0,0-1.28-.62q-1.44,0-3.48,3,0,1.76,0,5.16,0,1.84,0,2.84A5.31,5.31,0,0,0,310,184Z"/><path class="cls-5" d="M322,187.59a7.2,7.2,0,0,1-1.48-4.72,13,13,0,0,1,1.48-6.06,12.63,12.63,0,0,1,3.94-4.6,8.89,8.89,0,0,1,5.22-1.74,1.56,1.56,0,0,1,1.18.34,2.88,2.88,0,0,1,.5,1.22,9.42,9.42,0,0,1,1.76-.16q2,0,2,1.4a30,30,0,0,1-.6,4,38.82,38.82,0,0,0-.92,6.4,1.45,1.45,0,0,0,.3,1,1,1,0,0,0,.78.36,3,3,0,0,0,1.84-1,34.25,34.25,0,0,0,2.92-3.18,1.41,1.41,0,0,1,1.08-.56.93.93,0,0,1,.82.48,2.48,2.48,0,0,1,.3,1.32,3.68,3.68,0,0,1-.76,2.48,20.16,20.16,0,0,1-3.48,3.44,5.93,5.93,0,0,1-3.56,1.4,3.73,3.73,0,0,1-2.42-.9,5.47,5.47,0,0,1-1.66-2.46q-2.08,3.36-5.24,3.36A4.87,4.87,0,0,1,322,187.59Zm7.08-3.28a6.75,6.75,0,0,0,1.16-2.76l1.48-7.36a4.85,4.85,0,0,0-3.1,1.26,8.48,8.48,0,0,0-2.26,3.22,10.82,10.82,0,0,0-.84,4.24,2.83,2.83,0,0,0,.5,1.84,1.7,1.7,0,0,0,1.38.6A2.2,2.2,0,0,0,329.1,184.31Z"/><path class="cls-5" d="M361.16,180.85a2.42,2.42,0,0,1,.3,1.26,3.08,3.08,0,0,1-.28,1.44,2.62,2.62,0,0,1-.88.92q-3.44,2.32-5,3.44l-2.56,1.72a47.58,47.58,0,0,1-4,13q-2.46,4.74-6.26,4.74a4.53,4.53,0,0,1-3.32-1.26,4.43,4.43,0,0,1-1.28-3.3,10.94,10.94,0,0,1,2.24-6.1q2.24-3.26,8.4-8l.24-1.56a4.83,4.83,0,0,1-4,2.24,4.87,4.87,0,0,1-4-1.8,7.2,7.2,0,0,1-1.48-4.72,13,13,0,0,1,1.48-6.06,12.63,12.63,0,0,1,3.94-4.6,8.89,8.89,0,0,1,5.22-1.74,1.56,1.56,0,0,1,1.18.34,2.88,2.88,0,0,1,.5,1.22,8.63,8.63,0,0,1,1.76-.16,2.52,2.52,0,0,1,1.42.3,1.37,1.37,0,0,1,.42,1.18,5.69,5.69,0,0,1,0,.76q-.16,1.24-1,6.28-.16,1-.34,2.1l-.38,2.42q3.08-2.4,5.92-4.24a1.81,1.81,0,0,1,.92-.32A.92.92,0,0,1,361.16,180.85Zm-16,20.26a32.89,32.89,0,0,0,2.42-7.64,23.19,23.19,0,0,0-4.44,4.76,7.17,7.17,0,0,0-1.36,3.72,2.17,2.17,0,0,0,.26,1.12.92.92,0,0,0,.86.44Q343.9,203.51,345.16,201.11ZM348,184.23a7.45,7.45,0,0,0,1.2-3.2l1.28-6.84a4.73,4.73,0,0,0-3,1.26,8.59,8.59,0,0,0-2.24,3.22,10.82,10.82,0,0,0-.84,4.24,2.83,2.83,0,0,0,.5,1.84,1.7,1.7,0,0,0,1.38.6A2.29,2.29,0,0,0,348,184.23Z"/><path class="cls-5" d="M359.28,187.79a15.3,15.3,0,0,1-.62-5.12,32.56,32.56,0,0,1,1.48-9.88,3,3,0,0,1,1.18-1.7,4.15,4.15,0,0,1,2.3-.54,2.26,2.26,0,0,1,1.12.2.83.83,0,0,1,.32.76,15.23,15.23,0,0,1-.6,2.88q-.4,1.6-.64,2.8a28.59,28.59,0,0,0-.4,3,22.72,22.72,0,0,1,3-5.6,11.6,11.6,0,0,1,3.22-3.08,5.85,5.85,0,0,1,2.9-.92,2.3,2.3,0,0,1,2.6,2.6,32.14,32.14,0,0,1-.88,5.64,27.75,27.75,0,0,0-.76,4.6q0,1.6,1.16,1.6a3.13,3.13,0,0,0,1.9-1,32.22,32.22,0,0,0,2.94-3.18,1.41,1.41,0,0,1,1.08-.56.93.93,0,0,1,.82.48,2.48,2.48,0,0,1,.3,1.32,3.68,3.68,0,0,1-.76,2.48,17.71,17.71,0,0,1-3.7,3.48,7.76,7.76,0,0,1-4.5,1.36,3.89,3.89,0,0,1-3.08-1.18,5,5,0,0,1-1-3.42,24.92,24.92,0,0,1,.56-4,20.79,20.79,0,0,0,.52-3.48q0-.64-.44-.64T367.76,178a21.46,21.46,0,0,0-1.92,3.54,27.59,27.59,0,0,0-1.58,4.64,6.25,6.25,0,0,1-1,2.54,2.3,2.3,0,0,1-1.82.66A2.18,2.18,0,0,1,359.28,187.79Z"/><path class="cls-5" d="M399.62,177.43a2.77,2.77,0,0,1,.28,1.32q0,1.92-1.16,2.28a18.2,18.2,0,0,1-5.28,1,10,10,0,0,1-3,5.38,7.38,7.38,0,0,1-5.08,2,7.1,7.1,0,0,1-4.1-1.16,7.36,7.36,0,0,1-2.58-3.08,9.86,9.86,0,0,1-.88-4.16,12.2,12.2,0,0,1,1.16-5.42,9.11,9.11,0,0,1,3.2-3.72,8.06,8.06,0,0,1,4.52-1.34,6.23,6.23,0,0,1,4.9,2.1,9,9,0,0,1,2.18,5.18,24.19,24.19,0,0,0,4.48-.8,2.38,2.38,0,0,1,.56-.08A.87.87,0,0,1,399.62,177.43Zm-11.7,6.68a5.78,5.78,0,0,0,1.26-3,5.51,5.51,0,0,1-1.9-2.2,6.5,6.5,0,0,1-.66-2.88,6.94,6.94,0,0,1,.12-1.28h-.2a3.14,3.14,0,0,0-2.66,1.54,7.59,7.59,0,0,0-1.06,4.34,5.58,5.58,0,0,0,.86,3.36,2.48,2.48,0,0,0,2,1.16A2.9,2.9,0,0,0,387.92,184.11Z"/><path class="cls-5" d="M397.16,187.79a15.3,15.3,0,0,1-.62-5.12,32.56,32.56,0,0,1,1.48-9.88,3,3,0,0,1,1.18-1.7,4.15,4.15,0,0,1,2.3-.54,2.26,2.26,0,0,1,1.12.2.83.83,0,0,1,.32.76,15.23,15.23,0,0,1-.6,2.88q-.4,1.6-.64,2.8a28.59,28.59,0,0,0-.4,3,22.72,22.72,0,0,1,3-5.6,11.6,11.6,0,0,1,3.22-3.08,5.85,5.85,0,0,1,2.9-.92,2.3,2.3,0,0,1,2.6,2.6,32.14,32.14,0,0,1-.88,5.64,27.75,27.75,0,0,0-.76,4.6q0,1.6,1.16,1.6a3.13,3.13,0,0,0,1.9-1,32.22,32.22,0,0,0,2.94-3.18,1.41,1.41,0,0,1,1.08-.56.93.93,0,0,1,.82.48,2.48,2.48,0,0,1,.3,1.32,3.68,3.68,0,0,1-.76,2.48,17.71,17.71,0,0,1-3.7,3.48,7.76,7.76,0,0,1-4.5,1.36,3.89,3.89,0,0,1-3.08-1.18,5,5,0,0,1-1-3.42,24.92,24.92,0,0,1,.56-4,20.79,20.79,0,0,0,.52-3.48q0-.64-.44-.64T405.64,178a21.46,21.46,0,0,0-1.92,3.54,27.59,27.59,0,0,0-1.58,4.64,6.25,6.25,0,0,1-1,2.54,2.3,2.3,0,0,1-1.82.66A2.18,2.18,0,0,1,397.16,187.79Z"/><path class="cls-6" d="M161.66,219.25a3.46,3.46,0,0,1-1.33-1.18l.7-.8a2.81,2.81,0,0,0,2.42,1.38q2.08,0,2.08-2.46v-6.78h-4.1v-1h5.26v7.76a3.77,3.77,0,0,1-.82,2.65,3.17,3.17,0,0,1-2.44.89A3.85,3.85,0,0,1,161.66,219.25Z"/><path class="cls-6" d="M177.59,211.15v8.42H176.5V218a3.12,3.12,0,0,1-1.23,1.19,3.71,3.71,0,0,1-1.79.42,3.26,3.26,0,0,1-3.55-3.62v-4.88h1.14v4.77a2.81,2.81,0,0,0,.66,2,2.46,2.46,0,0,0,1.87.69,2.75,2.75,0,0,0,2.1-.81,3.13,3.13,0,0,0,.77-2.25v-4.42Z"/><path class="cls-6" d="M181.07,219.35a4.21,4.21,0,0,1-1.46-.74l.51-.9a4.28,4.28,0,0,0,1.33.68,5.28,5.28,0,0,0,1.66.26,3.18,3.18,0,0,0,1.7-.36,1.14,1.14,0,0,0,.55-1,.91.91,0,0,0-.3-.73,2,2,0,0,0-.77-.4,10.87,10.87,0,0,0-1.23-.26,14,14,0,0,1-1.65-.39,2.41,2.41,0,0,1-1.06-.68,1.89,1.89,0,0,1-.44-1.33,2.08,2.08,0,0,1,.88-1.73,4,4,0,0,1,2.45-.67,6.33,6.33,0,0,1,1.63.22,4.49,4.49,0,0,1,1.34.57l-.5.91a4.25,4.25,0,0,0-2.48-.72,2.87,2.87,0,0,0-1.64.38,1.18,1.18,0,0,0-.55,1,1,1,0,0,0,.31.77,1.93,1.93,0,0,0,.78.42,12.68,12.68,0,0,0,1.28.28,14.73,14.73,0,0,1,1.62.38,2.37,2.37,0,0,1,1,.66,1.8,1.8,0,0,1,.43,1.28,2,2,0,0,1-.92,1.75,4.37,4.37,0,0,1-2.55.65A6.46,6.46,0,0,1,181.07,219.35Z"/><path class="cls-6" d="M193,219.05a2.15,2.15,0,0,1-.79.44,3.19,3.19,0,0,1-1,.15,2.23,2.23,0,0,1-2.46-2.45v-5.09h-1.5v-1h1.5v-1.84h1.14v1.84h2.56v1h-2.56v5a1.59,1.59,0,0,0,.38,1.14,1.42,1.42,0,0,0,1.08.39,2.1,2.1,0,0,0,.68-.11,1.69,1.69,0,0,0,.57-.32Z"/><path class="cls-6" d="M202.12,215.71h-7a3,3,0,0,0,1,2.12,3.34,3.34,0,0,0,2.3.81,3.63,3.63,0,0,0,1.44-.28,3.14,3.14,0,0,0,1.14-.82l.64.74a3.6,3.6,0,0,1-1.4,1,4.72,4.72,0,0,1-1.85.35,4.67,4.67,0,0,1-2.3-.55,4,4,0,0,1-1.56-1.53,4.35,4.35,0,0,1-.56-2.21,4.51,4.51,0,0,1,.54-2.21,3.88,3.88,0,0,1,1.47-1.52,4.1,4.1,0,0,1,2.1-.54,4.06,4.06,0,0,1,2.1.54,3.85,3.85,0,0,1,1.46,1.51,4.55,4.55,0,0,1,.53,2.22Zm-6.1-2.87a3,3,0,0,0-.94,2h6a3,3,0,0,0-.94-2,3.09,3.09,0,0,0-4.1,0Z"/><path class="cls-6" d="M215.13,211.62a3.84,3.84,0,0,1,1.5,1.51,4.85,4.85,0,0,1,0,4.46,3.85,3.85,0,0,1-1.5,1.51,4.31,4.31,0,0,1-2.15.54,4,4,0,0,1-1.85-.42,3.5,3.5,0,0,1-1.35-1.24v4.69h-1.14V211.15h1.09v1.66a3.5,3.5,0,0,1,1.35-1.28,4,4,0,0,1,1.9-.45A4.33,4.33,0,0,1,215.13,211.62Zm-.62,6.61a2.88,2.88,0,0,0,1.13-1.16,3.53,3.53,0,0,0,.41-1.71,3.49,3.49,0,0,0-.41-1.7,3,3,0,0,0-1.13-1.16,3.3,3.3,0,0,0-3.21,0,3,3,0,0,0-1.12,1.16,3.49,3.49,0,0,0-.41,1.7,3.53,3.53,0,0,0,.41,1.71,2.9,2.9,0,0,0,1.12,1.16,3.36,3.36,0,0,0,3.21,0Z"/><path class="cls-6" d="M220.74,219.09a4,4,0,0,1-1.54-1.53,4.63,4.63,0,0,1,0-4.42,4,4,0,0,1,1.54-1.52,4.68,4.68,0,0,1,4.38,0,3.91,3.91,0,0,1,1.53,1.52,4.69,4.69,0,0,1,0,4.42,4,4,0,0,1-1.53,1.53,4.63,4.63,0,0,1-4.38,0Zm3.8-.86a2.85,2.85,0,0,0,1.11-1.16,3.86,3.86,0,0,0,0-3.42,2.85,2.85,0,0,0-1.11-1.16,3.37,3.37,0,0,0-3.22,0,2.9,2.9,0,0,0-1.12,1.16,3.8,3.8,0,0,0,0,3.42,2.9,2.9,0,0,0,1.12,1.16,3.37,3.37,0,0,0,3.22,0Z"/><path class="cls-6" d="M237.11,211.15v8.42H236V218a3.13,3.13,0,0,1-1.23,1.19,3.71,3.71,0,0,1-1.79.42,3.26,3.26,0,0,1-3.55-3.62v-4.88h1.14v4.77a2.81,2.81,0,0,0,.66,2,2.46,2.46,0,0,0,1.87.69,2.75,2.75,0,0,0,2.1-.81,3.13,3.13,0,0,0,.77-2.25v-4.42Z"/><path class="cls-6" d="M242.58,211.52a4,4,0,0,1,2-.43v1.1l-.27,0a2.69,2.69,0,0,0-2.08.82,3.25,3.25,0,0,0-.75,2.29v4.29H240.3v-8.42h1.09v1.65A2.75,2.75,0,0,1,242.58,211.52Z"/><path class="cls-6" d="M258,211.15l-3.74,8.42h-1.17l-3.73-8.42h1.18l3.15,7.17,3.18-7.17Z"/><path class="cls-6" d="M260.58,219.09a4,4,0,0,1-1.54-1.53,4.64,4.64,0,0,1,0-4.42,4,4,0,0,1,1.54-1.52,4.68,4.68,0,0,1,4.38,0,3.91,3.91,0,0,1,1.53,1.52,4.69,4.69,0,0,1,0,4.42,4,4,0,0,1-1.53,1.53,4.63,4.63,0,0,1-4.38,0Zm3.8-.86a2.84,2.84,0,0,0,1.11-1.16,3.87,3.87,0,0,0,0-3.42,2.85,2.85,0,0,0-1.11-1.16,3.37,3.37,0,0,0-3.22,0,2.91,2.91,0,0,0-1.12,1.16,3.79,3.79,0,0,0,0,3.42,2.9,2.9,0,0,0,1.12,1.16,3.37,3.37,0,0,0,3.22,0Z"/><path class="cls-6" d="M277,211.15v8.42h-1.09V218a3.13,3.13,0,0,1-1.23,1.19,3.71,3.71,0,0,1-1.79.42,3.26,3.26,0,0,1-3.55-3.62v-4.88h1.14v4.77a2.81,2.81,0,0,0,.66,2,2.46,2.46,0,0,0,1.87.69,2.75,2.75,0,0,0,2.1-.81,3.13,3.13,0,0,0,.77-2.25v-4.42Z"/><path class="cls-6" d="M280.43,219.35a4.21,4.21,0,0,1-1.46-.74l.51-.9a4.29,4.29,0,0,0,1.33.68,5.28,5.28,0,0,0,1.66.26,3.17,3.17,0,0,0,1.7-.36,1.14,1.14,0,0,0,.55-1,.91.91,0,0,0-.3-.73,2,2,0,0,0-.77-.4,10.81,10.81,0,0,0-1.23-.26,14,14,0,0,1-1.65-.39,2.41,2.41,0,0,1-1.06-.68,1.89,1.89,0,0,1-.44-1.33,2.08,2.08,0,0,1,.88-1.73,4,4,0,0,1,2.45-.67,6.33,6.33,0,0,1,1.63.22,4.5,4.5,0,0,1,1.34.57l-.5.91a4.25,4.25,0,0,0-2.48-.72,2.88,2.88,0,0,0-1.64.38,1.17,1.17,0,0,0-.55,1,1,1,0,0,0,.31.77,1.93,1.93,0,0,0,.78.42,12.59,12.59,0,0,0,1.28.28,14.69,14.69,0,0,1,1.62.38,2.37,2.37,0,0,1,1,.66,1.8,1.8,0,0,1,.43,1.28,2,2,0,0,1-.92,1.75,4.37,4.37,0,0,1-2.55.65A6.46,6.46,0,0,1,280.43,219.35Z"/><path class="cls-6" d="M287.47,219.39a.87.87,0,0,1-.25-.62.84.84,0,0,1,.25-.62.82.82,0,0,1,.6-.25.84.84,0,0,1,.61.25.82.82,0,0,1,.26.62.85.85,0,0,1-.26.62.83.83,0,0,1-.61.26A.8.8,0,0,1,287.47,219.39Z"/><path class="cls-6" d="M290.86,219.39a.87.87,0,0,1-.25-.62.84.84,0,0,1,.25-.62.82.82,0,0,1,.6-.25.84.84,0,0,1,.61.25.82.82,0,0,1,.26.62.85.85,0,0,1-.26.62.83.83,0,0,1-.61.26A.8.8,0,0,1,290.86,219.39Z"/><path class="cls-6" d="M294.25,219.39a.87.87,0,0,1-.25-.62.84.84,0,0,1,.25-.62.82.82,0,0,1,.6-.25.84.84,0,0,1,.61.25.82.82,0,0,1,.26.62.85.85,0,0,1-.26.62.83.83,0,0,1-.61.26A.8.8,0,0,1,294.25,219.39Z"/></svg>