<svg id="Layer_2" data-name="Layer 2" xmlns="http://www.w3.org/2000/svg" viewBox="0 0 534.79 144.63"><defs><style>.cls-1,.cls-2,.cls-3,.cls-4{fill:none;stroke:#fff;stroke-miterlimit:10;}.cls-1{stroke-width:5px;}.cls-2{stroke-width:3.5px;}.cls-3{stroke-width:3px;}.cls-4{stroke-width:4px;}.cls-5{fill:#fff;}</style></defs><circle class="cls-1" cx="66.15" cy="76.22" r="46.06"/><circle class="cls-2" cx="74.32" cy="55.22" r="6.17"/><circle class="cls-2" cx="57.85" cy="55.22" r="6.17"/><circle class="cls-3" cx="47.99" cy="66.38" r="3.83"/><circle class="cls-3" cx="84.32" cy="66.38" r="3.83"/><path class="cls-4" d="M67.13,68.69a17.52,17.52,0,0,1,9.22,2.92,21.66,21.66,0,0,1,9.58,17.75c.09,9.28-11.75,11.54-18.8,11.84H65.26c-7-.31-18.89-2.57-18.8-11.84C46.53,78,56.48,68.43,67.13,68.69Z"/><path class="cls-5" d="M156.87,73a13.22,13.22,0,0,1-5.12,4.64,19.63,19.63,0,0,1-8,2.12L142,89.45Q141,95,136.6,95a7.7,7.7,0,0,1-4.5-1.44,9.73,9.73,0,0,1-3.3-4.4,18.86,18.86,0,0,1-1.24-7.28,32.44,32.44,0,0,1,2.62-13.78,19.3,19.3,0,0,1,7-8.48,17.67,17.67,0,0,1,9.74-2.82,14.07,14.07,0,0,1,6.38,1.32,9.42,9.42,0,0,1,4,3.58,9.93,9.93,0,0,1,1.34,5.1A11.73,11.73,0,0,1,156.87,73Zm-4.2-5.88a5.72,5.72,0,0,0-1.74-4.3c-1.16-1.11-3-1.66-5.38-1.66a10.71,10.71,0,0,0-7.18,2.6A16.46,16.46,0,0,0,133.65,71,31,31,0,0,0,132,81.56a17.18,17.18,0,0,0,.5,4.4,8.68,8.68,0,0,0,1.28,3c.52.71,1,1.06,1.5,1.06.66,0,1.17-.92,1.52-2.76l1.32-7.56-1.36-.2a2.26,2.26,0,0,1-1.56-.74,2.38,2.38,0,0,1-.36-1.38,1.9,1.9,0,0,1,.5-1.4,1.8,1.8,0,0,1,1.38-.52,3,3,0,0,1,.6,0c.66.11,1.16.17,1.48.2.34-2.08.84-4.87,1.48-8.36a2.8,2.8,0,0,1,1.1-1.94,3.54,3.54,0,0,1,2-.58,2.92,2.92,0,0,1,1.9.5,2.05,2.05,0,0,1,.58,1.58,6.74,6.74,0,0,1-.08,1l-1.32,7.76q8.22-1,8.22-8.46Z"/><path class="cls-5" d="M158.57,89.18A7.07,7.07,0,0,1,157.43,85a33.77,33.77,0,0,1,.4-5.5,34.51,34.51,0,0,1,1.32-5.3,3.27,3.27,0,0,1,1.12-1.72,3.94,3.94,0,0,1,2.28-.52,2,2,0,0,1,1.22.28,1,1,0,0,1,.34.84,17.59,17.59,0,0,1-.44,2.16c-.27,1-.48,1.88-.64,2.68a36.49,36.49,0,0,0-.8,5.6,2.4,2.4,0,0,0,.2,1.18.69.69,0,0,0,.64.34q.6,0,1.5-1.2a17.83,17.83,0,0,0,1.92-3.64,50.24,50.24,0,0,0,2-6,2.59,2.59,0,0,1,2.9-2.25h.1a2.71,2.71,0,0,1,1.28.22.9.9,0,0,1,.36.82,40.62,40.62,0,0,1-1,5.48A43.8,43.8,0,0,0,171,84.84a1.84,1.84,0,0,0,.32,1.18,1,1,0,0,0,.84.42,3.14,3.14,0,0,0,1.9-1A32.76,32.76,0,0,0,177,82.26a1.38,1.38,0,0,1,1.08-.56.94.94,0,0,1,.82.48,2.52,2.52,0,0,1,.3,1.32,3.75,3.75,0,0,1-.76,2.48,18,18,0,0,1-3.7,3.48,7.79,7.79,0,0,1-4.5,1.36,3.05,3.05,0,0,1-2.82-1.48,7.92,7.92,0,0,1-.9-4.16,9.45,9.45,0,0,1-2,4.18,4,4,0,0,1-2.92,1.46A3.43,3.43,0,0,1,158.57,89.18Z"/><path class="cls-5" d="M176.61,89.24a15,15,0,0,1-.62-5.12,32.46,32.46,0,0,1,1.48-9.88,3,3,0,0,1,1.18-1.7A4.08,4.08,0,0,1,181,72a2.28,2.28,0,0,1,1.12.2.86.86,0,0,1,.32.76,15.68,15.68,0,0,1-.6,2.88c-.27,1.07-.48,2-.64,2.8a27.36,27.36,0,0,0-.4,3,22.56,22.56,0,0,1,3-5.6A11.39,11.39,0,0,1,187,73a5.84,5.84,0,0,1,2.9-.92,2.31,2.31,0,0,1,2.6,1.95,2.36,2.36,0,0,1,0,.65,21.23,21.23,0,0,1-.36,2.52,13.65,13.65,0,0,0-.32,2c0,.93.33,1.4,1,1.4s1.62-.59,2.88-1.76a1.53,1.53,0,0,1,1.08-.52.93.93,0,0,1,.82.46,2.26,2.26,0,0,1,.3,1.22,3.28,3.28,0,0,1-.8,2.32,10.84,10.84,0,0,1-2.62,2,6.58,6.58,0,0,1-3.18.82A4.39,4.39,0,0,1,188,84a3.88,3.88,0,0,1-1.1-2.92,6,6,0,0,1,.12-1.2c.05-.53.08-.89.08-1.08,0-.43-.15-.64-.44-.64s-.93.45-1.58,1.34A17.92,17.92,0,0,0,183.18,83a27.22,27.22,0,0,0-1.56,4.64,6.44,6.44,0,0,1-1,2.54,2.29,2.29,0,0,1-1.82.66A2.17,2.17,0,0,1,176.61,89.24Z"/><path class="cls-5" d="M194.81,89.24a15,15,0,0,1-.62-5.12,32.46,32.46,0,0,1,1.48-9.88,3,3,0,0,1,1.18-1.7,4.08,4.08,0,0,1,2.3-.54,2.28,2.28,0,0,1,1.12.2.86.86,0,0,1,.32.76,15.68,15.68,0,0,1-.6,2.88c-.27,1.07-.48,2-.64,2.8a27.36,27.36,0,0,0-.4,3,22.56,22.56,0,0,1,3-5.6A11.39,11.39,0,0,1,205.17,73a5.84,5.84,0,0,1,2.9-.92,2.31,2.31,0,0,1,2.6,1.95,2.36,2.36,0,0,1,0,.65,21.23,21.23,0,0,1-.36,2.52,13.65,13.65,0,0,0-.32,2c0,.93.33,1.4,1,1.4s1.62-.59,2.88-1.76a1.53,1.53,0,0,1,1.08-.52.93.93,0,0,1,.82.46,2.26,2.26,0,0,1,.3,1.22,3.28,3.28,0,0,1-.8,2.32,10.84,10.84,0,0,1-2.62,2,6.58,6.58,0,0,1-3.18.82A4.44,4.44,0,0,1,206.25,84a3.88,3.88,0,0,1-1.1-2.92,6,6,0,0,1,.12-1.2c0-.53.08-.89.08-1.08,0-.43-.15-.64-.44-.64s-.93.45-1.58,1.34a17.92,17.92,0,0,0-1.94,3.54,27.22,27.22,0,0,0-1.56,4.64,6.44,6.44,0,0,1-1,2.54,2.29,2.29,0,0,1-1.82.66A2.17,2.17,0,0,1,194.81,89.24Z"/><path class="cls-5" d="M215.2,89.88a3.5,3.5,0,0,1-.9-2.52,4,4,0,0,1,1-2.88,4.44,4.44,0,0,1,5.52-.22,3.38,3.38,0,0,1,.9,2.54,4.15,4.15,0,0,1-1,2.94,3.76,3.76,0,0,1-2.84,1.1A3.45,3.45,0,0,1,215.2,89.88Z"/><path class="cls-5" d="M271,58.16a2.13,2.13,0,0,1,.42,1.36c0,1.84-1,2.69-3,2.56l-1.4-.12c-1.58-.13-3.14-.24-4.7-.32s-3.2-.12-4.9-.12h-1.8c-.32,3.95-.66,7.55-1,10.8l6.88-.12a2.82,2.82,0,0,1,2,.52,2,2,0,0,1,.5,1.4,2.88,2.88,0,0,1-.8,2.14A3.18,3.18,0,0,1,261,77h-6.84l-.24,1.72q-.84,6.6-3.58,9.4a10.06,10.06,0,0,1-7.54,2.8,10.7,10.7,0,0,1-5-1.18,8.4,8.4,0,0,1-3.36-2.86,2.87,2.87,0,0,1-.44-1.64,2.94,2.94,0,0,1,.46-1.68,1.33,1.33,0,0,1,1.14-.72,1.71,1.71,0,0,1,.94.32,6.67,6.67,0,0,1,1.24,1.25A5.76,5.76,0,0,0,242.5,87a4.81,4.81,0,0,0,3.82-1.86,11.2,11.2,0,0,0,2-5.86l.24-2.2h-1.92a2.48,2.48,0,0,1-1.58-.52,1.74,1.74,0,0,1-.66-1.48,2.59,2.59,0,0,1,.64-1.9,2.48,2.48,0,0,1,1.88-.66h2.2q.48-4.39,1-10.68a16.31,16.31,0,0,0-6.08,1.4,3.19,3.19,0,0,0-1.76,3,4.64,4.64,0,0,0,.8,2.6,1.32,1.32,0,0,1,.24.72,1.54,1.54,0,0,1-.8,1.26,3.14,3.14,0,0,1-1.8.54,2.74,2.74,0,0,1-1.84-.64,3.77,3.77,0,0,1-.92-1.64,7.86,7.86,0,0,1-.44-2.76q0-5,5.1-7.2t14.9-2.24a89.17,89.17,0,0,1,12,.72A2.37,2.37,0,0,1,271,58.16Z"/><path class="cls-5" d="M264,89a7.17,7.17,0,0,1-1.48-4.72A12.92,12.92,0,0,1,264,78.26a12.59,12.59,0,0,1,3.94-4.6,8.84,8.84,0,0,1,5.22-1.74,1.57,1.57,0,0,1,1.18.34,3,3,0,0,1,.5,1.22,9.45,9.45,0,0,1,1.76-.16c1.33,0,2,.47,2,1.4a30.17,30.17,0,0,1-.6,4,37.25,37.25,0,0,0-.92,6.4,1.45,1.45,0,0,0,.3,1,1,1,0,0,0,.78.36,3,3,0,0,0,1.84-1A35.15,35.15,0,0,0,283,82.3a1.38,1.38,0,0,1,1.08-.56.94.94,0,0,1,.82.48,2.52,2.52,0,0,1,.3,1.32A3.75,3.75,0,0,1,284.4,86a20.59,20.59,0,0,1-3.48,3.44,5.93,5.93,0,0,1-3.56,1.4,3.7,3.7,0,0,1-2.42-.9,5.4,5.4,0,0,1-1.66-2.46q-2.08,3.36-5.24,3.36A4.86,4.86,0,0,1,264,89Zm7.08-3.28A7,7,0,0,0,272.28,83l1.48-7.36a4.88,4.88,0,0,0-3.1,1.26,8.38,8.38,0,0,0-2.26,3.22,10.63,10.63,0,0,0-.84,4.24,2.76,2.76,0,0,0,.5,1.84,1.69,1.69,0,0,0,1.38.6,2.21,2.21,0,0,0,1.66-1Z"/><path class="cls-5" d="M283,89a8.86,8.86,0,0,1-1.18-4.88,28.7,28.7,0,0,1,.46-4.62,41.2,41.2,0,0,1,1.18-5.26,3.29,3.29,0,0,1,1-1.76,3,3,0,0,1,1.92-.48c1.33,0,2,.45,2,1.36a33.24,33.24,0,0,1-.76,4.64,33.86,33.86,0,0,0-1,6,4,4,0,0,0,.32,1.84,1.1,1.1,0,0,0,1.06.61,3,3,0,0,0,1.8-1,37.46,37.46,0,0,0,2.88-3.16,1.38,1.38,0,0,1,1.08-.56.94.94,0,0,1,.82.48,2.52,2.52,0,0,1,.3,1.32,3.75,3.75,0,0,1-.76,2.48q-4,4.84-7.4,4.84A4.14,4.14,0,0,1,283,89Zm1.58-20.42a2.83,2.83,0,0,1-.84-2.18,3,3,0,0,1,1.1-2.34,4.06,4.06,0,0,1,2.74-.94,3.78,3.78,0,0,1,2.4.72,2.47,2.47,0,0,1,.92,2,3.27,3.27,0,0,1-1,2.54,4,4,0,0,1-2.76.94,3.57,3.57,0,0,1-2.6-.74Z"/><path class="cls-5" d="M310.36,82.2a2.52,2.52,0,0,1,.3,1.32A3.75,3.75,0,0,1,309.9,86a17.12,17.12,0,0,1-3.76,3.45,8.28,8.28,0,0,1-4.68,1.36q-8.16,0-8.16-11.48c0-1.17,0-2.36.12-3.56h-1.56a2.23,2.23,0,0,1-1.62-.44,1.93,1.93,0,0,1-.42-1.4c0-1.49.6-2.24,1.8-2.24h2.28a38.13,38.13,0,0,1,2.08-8,18,18,0,0,1,3.38-5.8,5.76,5.76,0,0,1,4.26-2.16,3,3,0,0,1,2.64,1.48,6.78,6.78,0,0,1,1,3.72,14,14,0,0,1-5.2,10.8h4.48a1.28,1.28,0,0,1,.92.28,1.48,1.48,0,0,1,.28,1q0,2.76-4.52,2.76h-4.88c-.06,1.33-.08,2.37-.08,3.12q0,4.15,1,5.84a3.31,3.31,0,0,0,3.1,1.68,4.8,4.8,0,0,0,3-1,24.85,24.85,0,0,0,3.12-3.12,1.38,1.38,0,0,1,1.08-.56A.93.93,0,0,1,310.36,82.2ZM301.2,61.06a21,21,0,0,0-1.4,4.16,53.74,53.74,0,0,0-1.1,5.9,13.77,13.77,0,0,0,3.54-4.58,11.25,11.25,0,0,0,1.18-4.62c0-1.57-.3-2.36-.88-2.36C302.14,59.56,301.69,60.06,301.2,61.06Z"/><path class="cls-5" d="M325.94,89.1a12.41,12.41,0,0,1-5.4-4.94,14.36,14.36,0,0,1-1.88-7.44,23.52,23.52,0,0,1,2.22-10.44,17.12,17.12,0,0,1,6-7.06,15,15,0,0,1,8.44-2.5c2.88,0,5.06.74,6.56,2.22a7.93,7.93,0,0,1,2.24,5.86,7.84,7.84,0,0,1-.86,3.92,2.94,2.94,0,0,1-4,1.14l-.22-.14a1.81,1.81,0,0,1-.64-1.52,8.49,8.49,0,0,1,.16-1.32A10.29,10.29,0,0,0,338.8,65c0-2.43-1.3-3.64-3.88-3.64a8.51,8.51,0,0,0-5,1.72A11.94,11.94,0,0,0,326,68.1,19.3,19.3,0,0,0,324.56,76q0,4.8,2.68,7.42t7.92,2.62a22.23,22.23,0,0,0,5.26-.66,41.39,41.39,0,0,0,5.9-2,2.82,2.82,0,0,1,1-.24,1.08,1.08,0,0,1,1,.48,2.32,2.32,0,0,1,.32,1.24A3.81,3.81,0,0,1,346,88.5a27.39,27.39,0,0,1-5.9,1.82,31.64,31.64,0,0,1-5.82.58A18.47,18.47,0,0,1,325.94,89.1Z"/><path class="cls-5" d="M366.26,78.88a2.85,2.85,0,0,1,.28,1.32c0,1.28-.39,2-1.16,2.28a18.28,18.28,0,0,1-5.28,1,10,10,0,0,1-3,5.38,7.39,7.39,0,0,1-5.08,2,7.07,7.07,0,0,1-4.1-1.16,7.29,7.29,0,0,1-2.58-3.08,9.66,9.66,0,0,1-.88-4.16A12.08,12.08,0,0,1,345.62,77a9,9,0,0,1,3.2-3.72A8.06,8.06,0,0,1,353.34,72a6.24,6.24,0,0,1,4.9,2.1,9,9,0,0,1,2.18,5.18,24.48,24.48,0,0,0,4.48-.8,2.1,2.1,0,0,1,.56-.08A.87.87,0,0,1,366.26,78.88Zm-11.7,6.68a5.91,5.91,0,0,0,1.26-3,5.46,5.46,0,0,1-1.9-2.2,6.4,6.4,0,0,1-.66-2.88,6.85,6.85,0,0,1,.12-1.28h-.2a3.12,3.12,0,0,0-2.66,1.54,7.6,7.6,0,0,0-1.06,4.34,5.54,5.54,0,0,0,.86,3.36,2.47,2.47,0,0,0,2,1.16,2.94,2.94,0,0,0,2.24-1Z"/><path class="cls-5" d="M363.8,89.24a15,15,0,0,1-.62-5.12,32.46,32.46,0,0,1,1.48-9.88,3,3,0,0,1,1.18-1.7,4.08,4.08,0,0,1,2.3-.54,2.28,2.28,0,0,1,1.12.2.86.86,0,0,1,.32.76,15.68,15.68,0,0,1-.6,2.88c-.27,1.07-.48,2-.64,2.78a26.29,26.29,0,0,0-.4,2.94,21.2,21.2,0,0,1,2.58-5.28,12.1,12.1,0,0,1,3.08-3.22,5.33,5.33,0,0,1,3-1.06,2.58,2.58,0,0,1,2,.64,2.92,2.92,0,0,1,.58,2,26,26,0,0,1-.76,4.64c-.22,1-.36,1.68-.44,2.16a19.74,19.74,0,0,1,4.44-7.16A7,7,0,0,1,387,72a2.31,2.31,0,0,1,2.6,1.95,2.36,2.36,0,0,1,0,.65,32.6,32.6,0,0,1-.88,5.64,26.6,26.6,0,0,0-.76,4.6c0,1.07.38,1.6,1.16,1.6a3.14,3.14,0,0,0,1.9-1,32.76,32.76,0,0,0,2.94-3.18,1.38,1.38,0,0,1,1.08-.56.94.94,0,0,1,.82.48,2.52,2.52,0,0,1,.3,1.32,3.75,3.75,0,0,1-.76,2.48,18,18,0,0,1-3.7,3.48,7.79,7.79,0,0,1-4.5,1.36,3.89,3.89,0,0,1-3.08-1.18,5,5,0,0,1-1-3.42,23.49,23.49,0,0,1,.56-4,21.49,21.49,0,0,0,.52-3.48c0-.43-.15-.64-.44-.64s-.82.44-1.56,1.31A19.24,19.24,0,0,0,380.26,83a28.12,28.12,0,0,0-1.56,4.64,6.24,6.24,0,0,1-1,2.56,2.41,2.41,0,0,1-1.86.64,2.12,2.12,0,0,1-2-1.26,6.36,6.36,0,0,1-.66-3.06,34.26,34.26,0,0,1,.4-4.4c.21-1.71.32-2.83.32-3.36s-.15-.64-.44-.64-.91.48-1.52,1.44a20.14,20.14,0,0,0-1.78,3.68,33.51,33.51,0,0,0-1.38,4.4,6.44,6.44,0,0,1-1,2.54,2.29,2.29,0,0,1-1.82.66A2.18,2.18,0,0,1,363.8,89.24Z"/><path class="cls-5" d="M415,82.2a2.52,2.52,0,0,1,.3,1.32,3.75,3.75,0,0,1-.76,2.48,18,18,0,0,1-3.7,3.48,7.79,7.79,0,0,1-4.5,1.36,4.35,4.35,0,0,1-3.44-1.52,8.89,8.89,0,0,1-4.76,1.52,49.18,49.18,0,0,1-2.36,12.9q-1.85,5.17-5.4,5.18a3.59,3.59,0,0,1-3.2-1.56,7.67,7.67,0,0,1-1-4.32A28.29,28.29,0,0,1,388,93.9a61.91,61.91,0,0,1,5.52-11.45q0-5.83-.08-8.12a2,2,0,0,1,.92-1.84,3.92,3.92,0,0,1,2.4-.68,1.79,1.79,0,0,1,1.22.34,2,2,0,0,1,.42,1.34V75a8.93,8.93,0,0,1,2.52-2.3,5.29,5.29,0,0,1,2.64-.7,4.44,4.44,0,0,1,3.66,1.8,7.44,7.44,0,0,1,1.42,4.72,12.85,12.85,0,0,1-.68,4.12,13.82,13.82,0,0,1-1.88,3.64,5.48,5.48,0,0,0,1.4.24,4,4,0,0,0,2.52-1,24.53,24.53,0,0,0,3.08-3.2,1.38,1.38,0,0,1,1.08-.56A.93.93,0,0,1,415,82.2Zm-22.5,18.1a99.69,99.69,0,0,0,.92-11.7,57.35,57.35,0,0,0-2.72,7.64,23.52,23.52,0,0,0-1,6.12,4.87,4.87,0,0,0,.3,2c.2.45.43.68.7.68Q391.82,105,392.54,100.3ZM401,85.45A9.2,9.2,0,0,0,403,82.33a10.83,10.83,0,0,0,.72-3.9,3,3,0,0,0-.48-1.82,1.56,1.56,0,0,0-1.28-.62q-1.44,0-3.48,3v8A5.32,5.32,0,0,0,401,85.45Z"/><path class="cls-5" d="M413,89a7.17,7.17,0,0,1-1.48-4.72A12.92,12.92,0,0,1,413,78.26a12.59,12.59,0,0,1,3.94-4.6,8.84,8.84,0,0,1,5.22-1.74,1.57,1.57,0,0,1,1.18.34,3,3,0,0,1,.5,1.22,9.45,9.45,0,0,1,1.76-.16c1.33,0,2,.47,2,1.4a30.17,30.17,0,0,1-.6,4,37.25,37.25,0,0,0-.92,6.4,1.45,1.45,0,0,0,.3,1,1,1,0,0,0,.78.36,3,3,0,0,0,1.84-1A35.15,35.15,0,0,0,432,82.3a1.38,1.38,0,0,1,1.08-.56.94.94,0,0,1,.82.48,2.52,2.52,0,0,1,.3,1.32A3.75,3.75,0,0,1,433.4,86a20.59,20.59,0,0,1-3.48,3.44,5.93,5.93,0,0,1-3.56,1.4,3.7,3.7,0,0,1-2.42-.9,5.4,5.4,0,0,1-1.66-2.46q-2.08,3.36-5.24,3.36A4.86,4.86,0,0,1,413,89Zm7.08-3.28A7,7,0,0,0,421.28,83l1.48-7.36a4.88,4.88,0,0,0-3.1,1.26,8.38,8.38,0,0,0-2.26,3.22,10.63,10.63,0,0,0-.84,4.24,2.76,2.76,0,0,0,.5,1.84,1.69,1.69,0,0,0,1.38.6,2.21,2.21,0,0,0,1.7-1Z"/><path class="cls-5" d="M452.2,82.3a2.5,2.5,0,0,1,.3,1.26,3.22,3.22,0,0,1-.28,1.44,2.77,2.77,0,0,1-.88.92c-2.3,1.55-4,2.69-5,3.44l-2.56,1.72a48.14,48.14,0,0,1-4,13q-2.46,4.74-6.26,4.74a4.52,4.52,0,0,1-3.32-1.26,4.41,4.41,0,0,1-1.28-3.3,10.92,10.92,0,0,1,2.24-6.1q2.23-3.25,8.4-8l.24-1.56a5,5,0,0,1-8,.44,7.17,7.17,0,0,1-1.48-4.72,12.92,12.92,0,0,1,1.48-6.06,12.59,12.59,0,0,1,3.94-4.6A8.84,8.84,0,0,1,441,71.92a1.57,1.57,0,0,1,1.18.34,3,3,0,0,1,.5,1.22,8.67,8.67,0,0,1,1.76-.16,2.52,2.52,0,0,1,1.42.3,1.4,1.4,0,0,1,.42,1.18c0,.25,0,.51,0,.76q-.17,1.25-1,6.28c-.11.67-.22,1.37-.34,2.1l-.38,2.42q3.08-2.4,5.92-4.24a1.79,1.79,0,0,1,.92-.32A.94.94,0,0,1,452.2,82.3Zm-16,20.26a33.47,33.47,0,0,0,2.42-7.64,22.79,22.79,0,0,0-4.44,4.76,7.09,7.09,0,0,0-1.36,3.72,2.08,2.08,0,0,0,.26,1.12.91.91,0,0,0,.86.44C434.6,105,435.36,104.16,436.2,102.56ZM439,85.68a7.56,7.56,0,0,0,1.2-3.2l1.28-6.84a4.72,4.72,0,0,0-3,1.26,8.48,8.48,0,0,0-2.24,3.22,10.63,10.63,0,0,0-.84,4.24,2.76,2.76,0,0,0,.5,1.84,1.69,1.69,0,0,0,1.38.6A2.32,2.32,0,0,0,439,85.68Z"/><path class="cls-5" d="M450.32,89.24a15,15,0,0,1-.62-5.12,32.46,32.46,0,0,1,1.48-9.88,3,3,0,0,1,1.18-1.7,4.08,4.08,0,0,1,2.3-.54,2.28,2.28,0,0,1,1.12.2.86.86,0,0,1,.32.76,15.68,15.68,0,0,1-.6,2.88c-.27,1.07-.48,2-.64,2.8a27.36,27.36,0,0,0-.4,3,22.56,22.56,0,0,1,3-5.6A11.39,11.39,0,0,1,460.68,73a5.84,5.84,0,0,1,2.9-.92,2.31,2.31,0,0,1,2.6,1.95,2.36,2.36,0,0,1,0,.65,32.6,32.6,0,0,1-.88,5.64,26.6,26.6,0,0,0-.76,4.6c0,1.07.38,1.6,1.16,1.6a3.14,3.14,0,0,0,1.9-1,32.76,32.76,0,0,0,2.94-3.18,1.38,1.38,0,0,1,1.08-.56.94.94,0,0,1,.82.48,2.52,2.52,0,0,1,.3,1.32A3.75,3.75,0,0,1,472,86a18,18,0,0,1-3.7,3.48,7.79,7.79,0,0,1-4.5,1.36,3.89,3.89,0,0,1-3.08-1.18,5,5,0,0,1-1-3.42,23.49,23.49,0,0,1,.56-4,21.49,21.49,0,0,0,.52-3.48c0-.43-.15-.64-.44-.64s-.81.44-1.54,1.31A20.89,20.89,0,0,0,456.88,83a26.44,26.44,0,0,0-1.58,4.64,6.44,6.44,0,0,1-1,2.54,2.29,2.29,0,0,1-1.82.66A2.18,2.18,0,0,1,450.32,89.24Z"/><path class="cls-5" d="M490.66,78.88a2.85,2.85,0,0,1,.28,1.32c0,1.28-.39,2-1.16,2.28a18.28,18.28,0,0,1-5.28,1,10,10,0,0,1-3,5.38,7.39,7.39,0,0,1-5.08,2,7.07,7.07,0,0,1-4.1-1.16,7.29,7.29,0,0,1-2.58-3.08,9.66,9.66,0,0,1-.88-4.16A12.08,12.08,0,0,1,470,77a9,9,0,0,1,3.2-3.72A8.06,8.06,0,0,1,477.74,72a6.24,6.24,0,0,1,4.9,2.1,9,9,0,0,1,2.18,5.18,24.48,24.48,0,0,0,4.48-.8,2.1,2.1,0,0,1,.56-.08A.87.87,0,0,1,490.66,78.88ZM479,85.56a5.91,5.91,0,0,0,1.26-3,5.46,5.46,0,0,1-1.9-2.2,6.4,6.4,0,0,1-.66-2.88,6.85,6.85,0,0,1,.12-1.28h-.2a3.12,3.12,0,0,0-2.66,1.54,7.6,7.6,0,0,0-1.06,4.34,5.54,5.54,0,0,0,.86,3.36,2.47,2.47,0,0,0,2,1.16,2.94,2.94,0,0,0,2.24-1Z"/><path class="cls-5" d="M488.2,89.24a15,15,0,0,1-.62-5.12,32.46,32.46,0,0,1,1.48-9.88,3,3,0,0,1,1.18-1.7,4.08,4.08,0,0,1,2.3-.54,2.28,2.28,0,0,1,1.12.2A.86.86,0,0,1,494,73a15.68,15.68,0,0,1-.6,2.88c-.27,1.07-.48,2-.64,2.8a27.36,27.36,0,0,0-.4,3,22.56,22.56,0,0,1,3-5.6A11.39,11.39,0,0,1,498.56,73a5.84,5.84,0,0,1,2.9-.92,2.31,2.31,0,0,1,2.6,1.95,2.36,2.36,0,0,1,0,.65,32.6,32.6,0,0,1-.88,5.64,26.6,26.6,0,0,0-.76,4.6c0,1.07.38,1.6,1.16,1.6a3.14,3.14,0,0,0,1.9-1,32.76,32.76,0,0,0,2.94-3.18,1.38,1.38,0,0,1,1.08-.56.94.94,0,0,1,.82.48,2.52,2.52,0,0,1,.3,1.32,3.75,3.75,0,0,1-.76,2.48,18,18,0,0,1-3.7,3.48,7.79,7.79,0,0,1-4.5,1.36,3.89,3.89,0,0,1-3.08-1.18,5,5,0,0,1-1-3.42,23.49,23.49,0,0,1,.56-4,21.49,21.49,0,0,0,.52-3.48c0-.43-.15-.64-.44-.64s-.81.44-1.54,1.31A20.89,20.89,0,0,0,494.76,83a26.44,26.44,0,0,0-1.58,4.64,6.44,6.44,0,0,1-1,2.54,2.29,2.29,0,0,1-1.82.66A2.18,2.18,0,0,1,488.2,89.24Z"/></svg>